# xmcd CD database file
#
# Track frame offsets:
#	150
#	17006
#	31523
#	45573
#	67978
#	83269
#	102206
#	113931
#	139049
#	153907
#	174715
#	193777
#
# Disc length: 2761 seconds
#
# Revision: 0
# Processed by: cddbd v1.5.2PL0 Copyright (c) Steve Scherf et al.
# Submitted via: CDex 1.70beta2
#
DISCID=890ac70c
DTITLE=Scrapomatic - I'm A Stranger And I Love The Night
DYEAR=2012
DGENRE=Blues
TTITLE0=Alligator Love Cry
TTITLE1=I'm A Stranger (And I Love The Night)
TTITLE2=Rat Trap
TTITLE3=Night Trains, Distant Whistles
TTITLE4=Don't Fall Apart On Me, Baby
TTITLE5=I Surrender
TTITLE6=The Mother Of My Wolf
TTITLE7=Crime Fighter
TTITLE8=Malibu (That's Where It Starts)
TTITLE9=How Unfortunate For Me
TTITLE10=The Party's Over
TTITLE11=Gentrification Blues
EXTD=YEAR: 2012
EXTT0=
EXTT1=
EXTT2=
EXTT3=
EXTT4=
EXTT5=
EXTT6=
EXTT7=
EXTT8=
EXTT9=
EXTT10=
EXTT11=
PLAYORDER=
